<svg width="125" height="26" viewBox="0 0 125 26" fill="none" xmlns="http://www.w3.org/2000/svg">
<path d="M0.586426 1.55137H4.98124V19.8887H0.586426V1.55137ZM6.7245 12.965C6.7245 8.42975 9.41998 5.72376 13.5804 5.72376C17.7408 5.72376 20.4363 8.42975 20.4363 12.965C20.4363 17.5002 17.7994 20.2213 13.5804 20.2213C9.36138 20.2213 6.7245 17.5757 6.7245 12.965ZM16.0268 12.965C16.0268 10.4706 15.0746 9.00422 13.5804 9.00422C12.0862 9.00422 11.1486 10.5159 11.1486 12.965C11.1486 15.414 12.0715 16.8955 13.5804 16.8955C15.0893 16.8955 16.0268 15.5047 16.0268 12.9801V12.965ZM22.0917 20.7806H26.3107C26.5115 21.2409 26.8509 21.6221 27.2785 21.8672C27.7062 22.1124 28.1991 22.2085 28.6839 22.1412C30.3539 22.1412 31.2329 21.2039 31.2329 19.8433V17.3036H31.145C30.7948 18.082 30.2266 18.7343 29.5138 19.1762C28.8009 19.6181 27.9761 19.8294 27.1457 19.7829C23.9375 19.7829 21.8133 17.2583 21.8133 12.9196C21.8133 8.58093 23.8349 5.84469 27.2043 5.84469C28.0607 5.81005 28.9069 6.04632 29.6295 6.52185C30.3521 6.99738 30.9167 7.68945 31.2475 8.50534V5.98075H35.6423V19.7375C35.6423 23.0482 32.815 25.1042 28.6399 25.1042C24.7578 25.1042 22.3407 23.3052 22.0917 20.7957V20.7806ZM31.2475 12.9498C31.2475 10.7427 30.266 9.35191 28.7132 9.35191C27.1603 9.35191 26.2081 10.7276 26.2081 12.9498C26.2081 15.1721 27.1457 16.4268 28.7132 16.4268C30.2807 16.4268 31.2475 15.2023 31.2475 12.965V12.9498ZM37.2977 12.9498C37.2977 8.41464 39.9932 5.70864 44.1536 5.70864C48.314 5.70864 51.0241 8.41464 51.0241 12.9498C51.0241 17.485 48.3872 20.2062 44.1536 20.2062C39.9199 20.2062 37.2977 17.5757 37.2977 12.965V12.9498ZM46.6 12.9498C46.6 10.4555 45.6478 8.9891 44.1536 8.9891C42.6593 8.9891 41.795 10.516 41.795 12.9801C41.795 15.4442 42.7179 16.9106 44.2122 16.9106C45.7064 16.9106 46.6 15.5047 46.6 12.9801V12.9498ZM52.6942 2.68517C52.6826 2.22727 52.8031 1.77616 53.0404 1.38901C53.2776 1.00187 53.6208 0.696126 54.0267 0.510546C54.4325 0.324965 54.8825 0.267904 55.3198 0.346595C55.7571 0.425287 56.1619 0.636187 56.4828 0.95256C56.8038 1.26893 57.0265 1.67653 57.1228 2.12369C57.219 2.57084 57.1844 3.03741 57.0234 3.46426C56.8624 3.8911 56.5822 4.259 56.2183 4.5213C55.8544 4.78361 55.4232 4.92852 54.9795 4.93765C54.6853 4.95851 54.3901 4.91636 54.1124 4.81386C53.8348 4.71136 53.5807 4.55072 53.3661 4.34204C53.1515 4.13335 52.981 3.88112 52.8654 3.60119C52.7497 3.32126 52.6914 3.01969 52.6942 2.7154V2.68517ZM52.6942 6.01098H57.089V19.8887H52.6942V6.01098ZM73.0421 12.9498C73.0421 17.485 71.0937 20.0701 67.7537 20.0701C66.8972 20.1268 66.0445 19.9108 65.3109 19.4512C64.5773 18.9915 63.9982 18.3105 63.6519 17.5002H63.564V24.3332H59.1692V5.98075H63.564V8.45999H63.6519C63.9821 7.63627 64.5502 6.93751 65.2788 6.45875C66.0075 5.97999 66.8614 5.74447 67.7244 5.78422C71.0937 5.84469 73.1007 8.44488 73.1007 12.9801L73.0421 12.9498ZM68.6473 12.9498C68.6473 10.7427 67.6658 9.3368 66.1276 9.3368C64.5894 9.3368 63.6079 10.7578 63.5933 12.9498C63.5786 15.1419 64.5894 16.5478 66.1276 16.5478C67.6658 16.5478 68.6473 15.1721 68.6473 12.9801V12.9498ZM80.5865 5.69352C84.2342 5.69352 86.4463 7.47737 86.5488 10.3345H82.5495C82.5495 9.35192 81.7585 8.7321 80.5426 8.7321C79.3267 8.7321 78.7846 9.21586 78.7846 9.92637C78.7846 10.6369 79.2681 10.8636 80.2496 11.0753L83.0622 11.6649C85.7431 12.2544 86.8857 13.3731 86.8857 15.4744C86.8857 18.3467 84.3514 20.191 80.6158 20.191C76.8802 20.191 74.4338 18.3467 74.2433 15.5198H78.477C78.6088 16.5478 79.3999 17.1525 80.6891 17.1525C81.9782 17.1525 82.5642 16.7141 82.5642 15.9884C82.5642 15.2628 82.154 15.1116 81.0992 14.8849L78.5649 14.3255C75.9427 13.7662 74.5656 12.33 74.5656 10.2136C74.5949 7.49248 76.9535 5.72376 80.5865 5.72376V5.69352ZM101.55 19.8585H97.3161V17.2734H97.2282C96.9955 18.1413 96.4821 18.901 95.7732 19.4262C95.0644 19.9515 94.2028 20.2107 93.3314 20.1608C92.6637 20.2 91.9957 20.0908 91.3724 19.8406C90.7491 19.5905 90.1851 19.2052 89.7184 18.7108C89.2518 18.2164 88.8935 17.6243 88.6676 16.9747C88.4418 16.3251 88.3537 15.6331 88.4093 14.9453V5.98075H92.8041V13.9022C92.8041 15.55 93.6244 16.4268 94.9868 16.4268C95.3063 16.4275 95.6222 16.3577 95.9134 16.2221C96.2046 16.0865 96.4643 15.8882 96.6752 15.6405C96.886 15.3929 97.0432 15.1015 97.136 14.7861C97.2289 14.4707 97.2553 14.1384 97.2135 13.8115V5.98075H101.608L101.55 19.8585ZM103.674 5.98075H107.922V8.65652H108.01C108.243 7.80009 108.745 7.04764 109.437 6.51695C110.129 5.98627 110.972 5.70731 111.834 5.72376C112.71 5.65129 113.582 5.92211 114.274 6.48233C114.966 7.04256 115.428 7.85114 115.569 8.74722H115.657C115.923 7.84161 116.473 7.05298 117.221 6.50558C117.969 5.95818 118.872 5.68313 119.788 5.72376C120.386 5.70304 120.981 5.81231 121.535 6.04447C122.089 6.27664 122.59 6.6265 123.004 7.07133C123.419 7.51616 123.738 8.046 123.941 8.62643C124.144 9.20686 124.226 9.82489 124.183 10.4404V19.8887H119.788V11.6498C119.788 10.138 119.129 9.44262 117.898 9.44262C117.624 9.44022 117.352 9.49859 117.102 9.61377C116.851 9.72896 116.627 9.8983 116.445 10.1103C116.263 10.3224 116.128 10.5722 116.047 10.843C115.967 11.1138 115.944 11.3992 115.979 11.68V19.8887H111.804V11.5893C111.804 10.1985 111.145 9.44262 109.944 9.44262C109.666 9.44271 109.392 9.50352 109.139 9.62104C108.886 9.73856 108.66 9.91012 108.476 10.1244C108.291 10.3387 108.154 10.5908 108.071 10.8642C107.988 11.1375 107.962 11.4259 107.995 11.7102V19.8887H103.601L103.674 5.98075Z" fill="white"/>
</svg>
