<svg width="175" height="41" viewBox="0 0 175 41" fill="none" xmlns="http://www.w3.org/2000/svg">
<path d="M50.5864 11.5514H54.9812V29.8887H50.5864V11.5514ZM56.7245 22.965C56.7245 18.4298 59.42 15.7238 63.5804 15.7238C67.7408 15.7238 70.4363 18.4298 70.4363 22.965C70.4363 27.5002 67.7994 30.2213 63.5804 30.2213C59.3614 30.2213 56.7245 27.5757 56.7245 22.965ZM66.0268 22.965C66.0268 20.4706 65.0746 19.0042 63.5804 19.0042C62.0862 19.0042 61.1486 20.5159 61.1486 22.965C61.1486 25.414 62.0715 26.8955 63.5804 26.8955C65.0893 26.8955 66.0268 25.5047 66.0268 22.9801V22.965ZM72.0917 30.7806H76.3107C76.5115 31.2409 76.8509 31.6221 77.2785 31.8672C77.7062 32.1124 78.1991 32.2085 78.6839 32.1412C80.3539 32.1412 81.2329 31.2039 81.2329 29.8433V27.3036H81.145C80.7948 28.082 80.2266 28.7343 79.5138 29.1762C78.8009 29.6181 77.9761 29.8294 77.1457 29.7829C73.9375 29.7829 71.8133 27.2583 71.8133 22.9196C71.8133 18.5809 73.8349 15.8447 77.2043 15.8447C78.0607 15.81 78.9069 16.0463 79.6295 16.5218C80.3521 16.9974 80.9167 17.6894 81.2475 18.5053V15.9807H85.6423V29.7375C85.6423 33.0482 82.815 35.1042 78.6399 35.1042C74.7578 35.1042 72.3407 33.3052 72.0917 30.7957V30.7806ZM81.2475 22.9498C81.2475 20.7427 80.266 19.3519 78.7132 19.3519C77.1603 19.3519 76.2081 20.7276 76.2081 22.9498C76.2081 25.1721 77.1457 26.4268 78.7132 26.4268C80.2807 26.4268 81.2475 25.2023 81.2475 22.965V22.9498ZM87.2977 22.9498C87.2977 18.4146 89.9932 15.7086 94.1536 15.7086C98.314 15.7086 101.024 18.4146 101.024 22.9498C101.024 27.485 98.3872 30.2062 94.1536 30.2062C89.9199 30.2062 87.2977 27.5757 87.2977 22.965V22.9498ZM96.6 22.9498C96.6 20.4555 95.6478 18.9891 94.1536 18.9891C92.6593 18.9891 91.795 20.516 91.795 22.9801C91.795 25.4442 92.7179 26.9106 94.2122 26.9106C95.7064 26.9106 96.6 25.5047 96.6 22.9801V22.9498ZM102.694 12.6852C102.683 12.2273 102.803 11.7762 103.04 11.389C103.278 11.0019 103.621 10.6961 104.027 10.5105C104.432 10.325 104.883 10.2679 105.32 10.3466C105.757 10.4253 106.162 10.6362 106.483 10.9526C106.804 11.2689 107.027 11.6765 107.123 12.1237C107.219 12.5708 107.184 13.0374 107.023 13.4643C106.862 13.8911 106.582 14.259 106.218 14.5213C105.854 14.7836 105.423 14.9285 104.979 14.9377C104.685 14.9585 104.39 14.9164 104.112 14.8139C103.835 14.7114 103.581 14.5507 103.366 14.342C103.151 14.1333 102.981 13.8811 102.865 13.6012C102.75 13.3213 102.691 13.0197 102.694 12.7154V12.6852ZM102.694 16.011H107.089V29.8887H102.694V16.011ZM123.042 22.9498C123.042 27.485 121.094 30.0701 117.754 30.0701C116.897 30.1268 116.045 29.9108 115.311 29.4512C114.577 28.9915 113.998 28.3105 113.652 27.5002H113.564V34.3332H109.169V15.9807H113.564V18.46H113.652C113.982 17.6363 114.55 16.9375 115.279 16.4588C116.008 15.98 116.861 15.7445 117.724 15.7842C121.094 15.8447 123.101 18.4449 123.101 22.9801L123.042 22.9498ZM118.647 22.9498C118.647 20.7427 117.666 19.3368 116.128 19.3368C114.589 19.3368 113.608 20.7578 113.593 22.9498C113.579 25.1419 114.589 26.5478 116.128 26.5478C117.666 26.5478 118.647 25.1721 118.647 22.9801V22.9498ZM130.587 15.6935C134.234 15.6935 136.446 17.4774 136.549 20.3345H132.55C132.55 19.3519 131.758 18.7321 130.543 18.7321C129.327 18.7321 128.785 19.2159 128.785 19.9264C128.785 20.6369 129.268 20.8636 130.25 21.0753L133.062 21.6649C135.743 22.2544 136.886 23.3731 136.886 25.4744C136.886 28.3467 134.351 30.191 130.616 30.191C126.88 30.191 124.434 28.3467 124.243 25.5198H128.477C128.609 26.5478 129.4 27.1525 130.689 27.1525C131.978 27.1525 132.564 26.7141 132.564 25.9884C132.564 25.2628 132.154 25.1116 131.099 24.8849L128.565 24.3255C125.943 23.7662 124.566 22.33 124.566 20.2136C124.595 17.4925 126.953 15.7238 130.587 15.7238V15.6935ZM151.55 29.8585H147.316V27.2734H147.228C146.995 28.1413 146.482 28.901 145.773 29.4262C145.064 29.9515 144.203 30.2107 143.331 30.1608C142.664 30.2 141.996 30.0908 141.372 29.8406C140.749 29.5905 140.185 29.2052 139.718 28.7108C139.252 28.2164 138.893 27.6243 138.668 26.9747C138.442 26.3251 138.354 25.6331 138.409 24.9453V15.9807H142.804V23.9022C142.804 25.55 143.624 26.4268 144.987 26.4268C145.306 26.4275 145.622 26.3577 145.913 26.2221C146.205 26.0865 146.464 25.8882 146.675 25.6405C146.886 25.3929 147.043 25.1015 147.136 24.7861C147.229 24.4707 147.255 24.1384 147.214 23.8115V15.9807H151.608L151.55 29.8585ZM153.674 15.9807H157.922V18.6565H158.01C158.243 17.8001 158.745 17.0476 159.437 16.517C160.129 15.9863 160.972 15.7073 161.834 15.7238C162.71 15.6513 163.582 15.9221 164.274 16.4823C164.966 17.0426 165.428 17.8511 165.569 18.7472H165.657C165.923 17.8416 166.473 17.053 167.221 16.5056C167.969 15.9582 168.872 15.6831 169.788 15.7238C170.386 15.703 170.981 15.8123 171.535 16.0445C172.089 16.2766 172.59 16.6265 173.004 17.0713C173.419 17.5162 173.738 18.046 173.941 18.6264C174.144 19.2069 174.226 19.8249 174.183 20.4404V29.8887H169.788V21.6498C169.788 20.138 169.129 19.4426 167.898 19.4426C167.624 19.4402 167.352 19.4986 167.102 19.6138C166.851 19.729 166.627 19.8983 166.445 20.1103C166.263 20.3224 166.128 20.5722 166.047 20.843C165.967 21.1138 165.944 21.3992 165.979 21.68V29.8887H161.804V21.5893C161.804 20.1985 161.145 19.4426 159.944 19.4426C159.666 19.4427 159.392 19.5035 159.139 19.621C158.886 19.7386 158.66 19.9101 158.476 20.1244C158.291 20.3387 158.154 20.5908 158.071 20.8642C157.988 21.1375 157.962 21.4259 157.995 21.7102V29.8887H153.601L153.674 15.9807Z" fill="white"/>
<path d="M38.1013 12.3829C37.3558 10.6238 36.3691 8.9844 35.1715 7.5151C33.401 5.27825 31.1916 3.45367 28.6886 2.16146C26.1857 0.869246 23.4459 0.1387 20.6496 0.0179001C17.8533 -0.1029 15.0639 0.388783 12.465 1.46059C9.86614 2.5324 7.51669 4.16004 5.57129 6.23637C3.62589 8.3127 2.12865 10.7907 1.17813 13.5071C0.227602 16.2236 -0.154663 19.117 0.0564947 21.9969C0.267652 24.8769 1.06744 27.678 2.40323 30.2159C3.73901 32.7539 5.5805 34.9712 7.8065 36.7218C9.23482 37.8675 10.8131 38.7989 12.4943 39.4883C14.8514 40.4851 17.3741 40.9985 19.9215 41C25.1797 40.988 30.2189 38.8251 33.9343 34.9853C37.6497 31.1455 39.7382 25.9422 39.7421 20.516C39.7459 17.7171 39.1873 14.9477 38.1013 12.3829V12.3829ZM19.9069 4.17416C22.1944 4.17391 24.4544 4.68987 26.5284 5.6859V5.6859C26.0226 5.9114 25.4909 6.0689 24.9462 6.15454C23.154 6.42226 21.4938 7.2809 20.2133 8.60229C18.9328 9.92369 18.1007 11.637 17.8413 13.4864C17.7274 14.5237 17.2703 15.4886 16.547 16.2184C15.8238 16.9483 14.8787 17.3983 13.8713 17.4925C12.0791 17.7603 10.4189 18.6189 9.13837 19.9403C7.85788 21.2617 7.02583 22.975 6.7664 24.8244C6.67856 25.8107 6.2708 26.7375 5.6091 27.4549V27.4549C4.46741 24.9654 3.95453 22.2184 4.11819 19.4695C4.28186 16.7205 5.11674 14.0589 6.54514 11.7325C7.97355 9.40597 9.94906 7.49018 12.2878 6.16338C14.6266 4.83657 17.2526 4.14188 19.9215 4.14393L19.9069 4.17416ZM7.79185 31.0981C7.96764 30.9319 8.14344 30.7807 8.31923 30.5993C9.62251 29.2953 10.4591 27.5741 10.6924 25.7164C10.787 24.6721 11.2388 23.6968 11.9669 22.965C12.6675 22.2124 13.6105 21.7501 14.6184 21.6649C16.4107 21.3972 18.0709 20.5386 19.3514 19.2172C20.6319 17.8958 21.4639 16.1825 21.7234 14.333C21.7867 13.2408 22.2409 12.2118 22.9979 11.4456C23.7158 10.7077 24.6678 10.2621 25.6787 10.1909C27.3252 9.9571 28.8607 9.20176 30.0735 8.02909C31.4544 9.21137 32.6244 10.6336 33.5307 12.2317C33.4751 12.3093 33.4112 12.3803 33.3403 12.4434C32.641 13.2025 31.6992 13.6751 30.6888 13.7737C28.8947 14.0367 27.232 14.8938 25.9506 16.2161C24.6693 17.5384 23.8387 19.2542 23.5838 21.1056C23.4806 22.1463 23.0319 23.1182 22.3137 23.8566C21.5955 24.5949 20.652 25.0544 19.6432 25.157C17.8457 25.4227 16.1793 26.2796 14.8914 27.6005C13.6035 28.9214 12.7628 30.6357 12.4943 32.4889C12.4154 33.2278 12.1696 33.9372 11.7765 34.56C10.2734 33.6391 8.9273 32.4696 7.79185 31.0981V31.0981ZM19.9069 36.9334C18.4203 36.9351 16.941 36.7214 15.5121 36.2985C16.0008 35.3582 16.3186 34.3335 16.4496 33.275C16.5523 32.2366 16.9989 31.2666 17.7141 30.5285C18.4293 29.7904 19.3694 29.3295 20.3756 29.2236C22.1705 28.9589 23.8341 28.1016 25.1174 26.7799C26.4008 25.4583 27.235 23.7433 27.4952 21.8917C27.5979 20.8533 28.0445 19.8832 28.7597 19.1451C29.4749 18.4071 30.415 17.9462 31.4212 17.8402C32.7719 17.6589 34.0593 17.14 35.1715 16.3285C35.789 18.7441 35.8622 21.2736 35.3853 23.7229C34.9085 26.1722 33.8943 28.4763 32.4205 30.4583C30.9468 32.4403 29.0527 34.0477 26.8835 35.157C24.7143 36.2663 22.3278 36.8481 19.9069 36.8579V36.9334Z" fill="#F2726F"/>
</svg>
